<svg version="1.1" xmlns="http://www.w3.org/2000/svg" xmlns:xlink="http://www.w3.org/1999/xlink" viewBox="0 0 224 224"><g transform="translate(33.6,33.6) scale(0.7,0.7)"><g fill="none" fill-rule="nonzero" stroke="none" stroke-width="1" stroke-linecap="butt" stroke-linejoin="miter" stroke-miterlimit="10" stroke-dasharray="" stroke-dashoffset="0" font-family="none" font-weight="none" font-size="none" text-anchor="none" style="mix-blend-mode: normal"><path d="M0,224v-224h224v224z" fill="none"></path><g id="Layer_1"><g id="surface1"><rect x="-10.89973" y="29.72694" transform="rotate(-45) scale(4.66662,4.66662)" width="2" height="5.7" fill="#d38013"></rect><path d="M46.66667,193.2l-25.2,-25.2l155.86667,-155.86667l25.2,25.2zM34.53333,168l12.13333,12.13333l142.8,-142.8l-12.13333,-12.13333z" fill="#d38013"></path><rect x="17.3846" y="29.72715" transform="rotate(-45) scale(4.66662,4.66662)" width="2" height="5.7" fill="#d38013"></rect><rect x="11.72776" y="29.72708" transform="rotate(-45) scale(4.66662,4.66662)" width="2" height="5.7" fill="#d38013"></rect><rect x="-16.55664" y="29.72694" transform="rotate(-45) scale(4.66662,4.66662)" width="2" height="5.7" fill="#d38013"></rect><rect x="-1.38606" y="42.84076" transform="rotate(-45) scale(4.66662,4.66662)" width="5.7" height="2" fill="#d38013"></rect><path d="M177.33333,193.2l-155.86667,-155.86667l25.2,-25.2l155.86667,155.86667zM34.53333,37.33333l142.8,142.8l12.13333,-12.13333l-142.8,-142.8z" fill="#d38013"></path><rect x="-1.38584" y="14.55643" transform="rotate(-45) scale(4.66662,4.66662)" width="5.7" height="2" fill="#d38013"></rect><rect x="-1.38591" y="20.21327" transform="rotate(-45) scale(4.66662,4.66662)" width="5.7" height="2" fill="#d38013"></rect><rect x="-1.38613" y="48.4976" transform="rotate(-45) scale(4.66662,4.66662)" width="5.7" height="2" fill="#d38013"></rect><path d="M79.33333,88.66667l-14,121.33333h93.33333l-14,-121.33333z" fill="#ffb74d"></path><path d="M130.66667,210h-37.33333v-28c0,-10.26667 8.4,-18.66667 18.66667,-18.66667c10.26667,0 18.66667,8.4 18.66667,18.66667z" fill="#e65100"></path><path d="M116.66667,130.66667h-9.33333v-9.33333c0,-2.8 1.86667,-4.66667 4.66667,-4.66667c2.8,0 4.66667,1.86667 4.66667,4.66667z" fill="#805a26"></path><path d="M149.33333,88.66667v9.33333h-74.66667v-9.33333l37.33333,-37.33333z" fill="#c62828"></path></g></g><path d="M0,224v-224h224v224z" fill="none"></path><path d="M4.48,219.52v-215.04h215.04v215.04z" fill="none"></path><path d="M112,224c-61.85589,0 -112,-50.14411 -112,-112v0c0,-61.85589 50.14411,-112 112,-112v0c61.85589,0 112,50.14411 112,112v0c0,61.85589 -50.14411,112 -112,112z" fill="none"></path><path d="M112,219.52c-59.38166,0 -107.52,-48.13834 -107.52,-107.52v0c0,-59.38166 48.13834,-107.52 107.52,-107.52h0c59.38166,0 107.52,48.13834 107.52,107.52v0c0,59.38166 -48.13834,107.52 -107.52,107.52z" fill="none"></path><path d="" fill="none"></path><path d="" fill="none"></path><g><g id="IOS_copy"><path d="M111.98835,47.42186v90.97941c-33.12583,-18.66244 -36.85832,-60.65294 -37.32488,-74.18321c15.86308,-1.39968 30.79303,-11.66403 37.32488,-16.7962z" fill="#ff5252"></path><path d="M149.31323,64.21806c-0.46656,13.53027 -4.66561,55.52077 -37.32488,74.18321v-90.97941c6.06529,5.13217 20.06213,15.39651 37.32488,16.7962z" fill="#d32f2f"></path><path d="M153.97884,60.01901c-23.79461,0 -41.99049,-18.66244 -41.99049,-18.66244v12.31721c6.76514,5.17883 18.28919,12.45718 32.42599,14.83664c-1.11975,15.25655 -6.57851,48.05579 -32.42599,64.66536v10.82422c44.3233,-23.32805 41.99049,-83.98099 41.99049,-83.98099z" fill="#9fa8da"></path><path d="M70.02118,60.01901c23.78062,0 41.96717,-18.66244 41.96717,-18.66244v12.31721c-6.76047,5.17883 -18.27986,12.45718 -32.40733,14.83664c1.11508,15.25655 6.57385,48.05579 32.40733,64.66536v10.82422c-44.29997,-23.32805 -41.96717,-83.98099 -41.96717,-83.98099z" fill="#c5cae9"></path></g></g></g></g></svg>